<svg xmlns="http://www.w3.org/2000/svg"
     xmlns:xlink="http://www.w3.org/1999/xlink"
     width="100%" height="100%" viewBox="0 0 790 550">

    <title>paraflower</title>

    <metadata id="license">
        <rdf:RDF
            xmlns:rdf="http://www.w3.org/1999/02/22-rdf-syntax-ns#"
            xmlns:dc="http://purl.org/dc/elements/1.1/"
            xmlns:cc="http://web.resource.org/cc/">
            <cc:Work rdf:about="">
                <dc:title>Paraflowers</dc:title>
                <dc:date>17-05-2009</dc:date>
                <dc:creator>
                    <cc:Agent><dc:title>Natalie Perkins</dc:title></cc:Agent>
                    <cc:Agent><dc:title>Doug Schepers</dc:title></cc:Agent>
                </dc:creator>
                <dc:description>See document description</dc:description>
                <cc:license rdf:resource="http://creativecommons.org/licenses/by-nc-sa/2.5/" />
                <dc:format>image/svg+xml</dc:format>
                <dc:type rdf:resource="http://purl.org/dc/dcmitype/StillImage" />
            </cc:Work>
            <cc:License rdf:about="http://creativecommons.org/licenses/by-nc-sa/2.5/">
                <cc:permits rdf:resource="http://web.resource.org/cc/Reproduction" />
                <cc:permits rdf:resource="http://web.resource.org/cc/Distribution" />
                <cc:requires rdf:resource="http://web.resource.org/cc/Notice" />
                <cc:requires rdf:resource="http://web.resource.org/cc/Attribution" />
                <cc:prohibits rdf:resource="http://web.resource.org/cc/CommercialUse" />
                <cc:permits rdf:resource="http://web.resource.org/cc/DerivativeWorks" />
                <cc:requires rdf:resource="http://web.resource.org/cc/ShareAlike" />
            </cc:License>
        </rdf:RDF>
    </metadata>

    <defs>
        <g id="flower" transform="translate(-70,-100)" >
            <defs>
                <radialGradient id="petals" cx="220" cy="250" gradientUnits="userSpaceOnUse">
                    <stop offset="0%" stop-color="param(petal1) white" />
                    <stop offset="50%" stop-color="param(petal2) gray" />
                </radialGradient>
            </defs>
            <path fill="param(base) black" d="M356.7,223.5c10.7-20.9-7.4-32.1-25.1-35.5c2.1-15.5-15.0-29.1-28.1-22.6
 				c-4.3-7.5-12.9-10.7-21.5-8.2c-4.1-3.2-7.6-3.0-12.1-3.4c1.0-10.9-0.2-21.0-11.5-26.2
 				c-7.4-3.3-14.0-1.2-19.5,3.0c-5.0-10.6-13.6-19.4-26.2-19.5c-12.3-0.1-19.3,10.3-24.0,20.5
 				c-13.8-6.9-30.0,4.6-29.6,20.6c-7.2,2.1-12.9,6.9-14.3,14.4c-3.0,0.6-6.1,1.8-8.0,4.3
 				c-2.1,2.6-2.8,5.4-3.7,8.1c-9.5-3.9-18.6-5.5-27.3,2.2c-6.4,5.7-6.2,13.6-3.6,20.7
 				c-10.6,1.4-22.3,6.1-25.6,16.5c-4.3,13.5,2.3,23.4,11.7,31.9c-10.2,11.6-3.4,33.2,11.0,34.7
 				c-0.4,6.1,1.3,12.6,6.8,16.1c4,2.5,3.5,2.9,6.0,7.2c1.1,1.8,2.6,2.8,4.2,3.6
 				c-6.0,6.9-11.6,15.8-6.8,24.7c4.5,8.5,11.0,11.7,19.1,11.5c-2.1,10.9-1.1,24.3,8.5,30.4
 				c11.3,7.2,22.2,4.1,32.8-1.6c7.4,13.5,29.8,13.7,36.2,0.9c7.0,2.8,15.2,1.0,20.6-4.6
 				c3.5,1.6,7.6,2.3,11.2,0.9c2.5-0.9,4.3-2.5,6.2-4.0c5.2,8.2,11.8,15.0,22.8,13.7
 				c9.1-1.0,13.6-7.3,15.6-14.9c10.0,5.2,21.9,6.9,31.7,0.1c10.6-7.2,9.9-20.4,7.4-31.8
 				c15.1-3.3,21.6-24.8,10.9-34.6c3.2-4.0,5.1-9.2,4.2-14.1c-0.9-4.6-0.8-7.3-0.3-12.0
 				c0.2-1.9-0.5-3.4-1.2-4.9c9.4-2.0,19.2-5.9,20.6-16.8c1.1-8.9-2.2-15.1-8.4-19.5
 				C350.9,232.2,354.0,228.3,356.7,223.5z"/>
            <path fill="param(heart) darkgray" stroke="param(petal2)" stroke-width="2"  d="M219.1,233.2c-13.0,0-23.5,10.5-23.5,23.5s10.5,23.5,23.5,23.5
 				c13.0,0,23.5-10.5,23.5-23.5S232.1,233.2,219.1,233.2z"/>
            <path fill="url(#petals)" d="M218.9,341.8c-1.1-12.9,1.0-22.9,1.5-26.2c0.1-0.8,0.2-1.6,0.4-2.4
 				c-0.7-3.1-1.8-6.6-3.1-9.8c-2.1-5.7-4.5-11.1-5.5-14.0c-1.1,1.6-4.2,4.4-4.6,5.3
 				c-0.9,2.4-1.4,4.6-1.7,6.7c-0.4,3.3-0.4,6.6-1.1,10.1c-3.2,19.3-21.5,41.1-13.7,29.1
 				c7.8-12.0,8.3-23.4,10.1-40.0c0.0-0.3,0.0-0.5,0.0-0.8c0.1-1.9,0.0-3.6-0.0-5.0
 				c-0.0-0.0-1.0,1.3-2.8,3.7c-9.1,12.4-37.5,52.1-37.6,51.8c-0.2-1.4,22.3-38.5,32.0-55.0
 				c1.8-3.0,3.1-5.4,3.8-6.7c-0.9-0.0-0.9,1.1-2.0,1.5c-1.7,0.7-3.7,1.6-5.4,2.4
 				c-2.5,1.1-4.4,2.1-4.1,1.7c-0.5,0.6-6.9,3.9-7.5,4.5c-15.1,10.9-31.3,27.4-26.6,21.9
 				c4.7-5.4,11.5-13.3,27.7-26.0c1.1-0.7,3.5-3.4,6.5-5.9c1.8-1.5,3.8-2.9,5.9-3.9
 				c1.3-0.6,1.0-2.4,2.6-3.0c0.2-0.2,0.4-2.3,0.7-3.5c-1.9-0.4-7.3-2.5-12.0-2.5
 				c-1.7,0-3.7,0.1-5.7,0.2c-0.0,0.0-0.0,0.0-0.1,0.0c-2.7,0.2-5.6,0.5-8.7,0.9
 				c-1.7,0.2-3.5,0.5-5.3,0.8c-3.6,0.4-16.2,2.1-31.4,8.5c-5.3,2.2-12.8,5.8-14.5,11.5
 				c-0.1,0.6-0.3,1.3-0.3,2.1c-0.0,0.9,0.1,2.0,0.4,3.1c1.3,4.0,4.4,5.8,8.5,6.6
 				c1.0,0.1,1.8,0.8,2.9,0.8c-0.6,0.5-0.9,1.2-1.5,1.7c-2.4,2.3-4.9,4.6-7.1,7.1
 				c-3.3,4.4-5.5,9.4-3.9,14.5c1.6,5.0,5.6,8.7,10.3,9.5c3.1,0.3,5.8-0.5,8.6-1.3
 				c0.1-0.0,1.2-0.1,1.4-0.2c-0.0,0.2-0.4,1.1-0.5,1.4c-2.0,5.5-1.6,12.0-0.7,19.2
 				c1.1,9.5,9.8,18.3,20.5,14.4c6.1-1.7,12.0-4.9,16.9-9.4c0.2-0.2,0.4-1.3,0.7-1.6
 				c0.1,1.0-0.1,2.2,0.1,3.3c0.4,1.8,0.9,3.7,1.7,5.6c3.2,7.9,15.5,10.3,21.2,2.2
 				c2.3-3.0,5.3-5.9,6.7-9.6c0.3-0.9-0.1-2.9,0.1-3.9c0.3,0.8,0.8,2.3,1.2,3.2
 				c0.4,0.8,0.1,2.1,0.6,2.9c4.7,6.7,16.1,4.2,18.1-3.0c0.1-0.4,0.3-0.9,0.4-1.4
 				c-0.2-0.5-0.5-1.0-0.7-1.6C219.2,356.1,219.3,348.3,218.9,341.8z"/>
            <path fill="url(#petals)" d="M136.8,280.1c12.1-4.6,22.2-5.3,25.6-5.7c2.3-0.2,4.6-0.4,7.0-0.6
 				c-0.4,0.0-0.8,0.0-1.1,0.0c1.8-1.2,3.8-3.0,5.8-4.8c3.0-2.8,6.0-5.8,7.8-7.5
 				c-1.8-1.4-3.8-3.1-4.5-2.8c-1.5,0.6-3.1,1.2-4.7,1.7c-3.5,1.1-7.3,2.0-11.3,2.5
 				c-19.3,3.1-45.9-7.1-31.9-3.5c13.9,3.5,24.9,0.3,41.1-3.3c0.7-0.1,1.4-0.3,2.0-0.5
 				c1.3-0.4,2.5-0.8,3.5-1.3c0.0-0.0-1.2-0.4-3.3-1.1c-13.4-4.2-62.5-19.0-62.2-19.2
 				c1.2-0.6,44.9,9.0,63.2,12.7c3.1,0.6,5.5,1.0,6.8,1.2c-0.2-0.8-1.3-0.5-2.1-1.4
 				c-1.1-1.2-2.4-2.6-3.6-3.8c-2.1-2.2-3.9-4.0-3.4-3.8c-0.7-0.2-5.9-5.3-6.7-5.6
 				c-15.2-10.8-27.4-30.1-22.6-24.6c6.2,7.1,9.5,13.1,26.9,24.4c0.8,0.6,4.7,1.2,9.1,2.1
 				c4.3,0.9,9.1,2.2,11.3,4.4c-0.0-2.0,0.0-5.5-1.1-9.2c-0.6-1.8-1.4-3.8-2.3-5.8
 				c-0.5-1.3-1.2-2.7-1.8-4.1c-3.3-2.3-6.6-4.9-9.7-7.7c-2.8-2.3-10.7-12.9-19.3-27.6
 				c-1.3-2.4-3.4-5.7-4.7-9.1c-2.9-1.1-6.1-1.2-9.1,1.0c-3.3,2.6-4.0,6.0-3.5,10.2
 				c0.1,1.0-0.1,2.0,0.0,3.0c-0.7-0.4-1.4-0.4-2.1-0.8c-2.9-1.6-5.9-3.1-9.0-4.4
 				c-5.3-1.7-10.7-2.1-15.0,0.8c-4.2,3.1-6.4,8.1-5.6,12.8c0.7,3.1,2.4,5.3,4.0,7.7
 				c0.1,0.1,0.5,1.1,0.6,1.3c-0.2-0.0-1.2-0.0-1.4-0.0c-5.9-0.1-11.9,2.2-18.4,5.5
 				c-8.6,4.1-14.1,15.1-7.0,24.1c3.6,5.2,8.6,9.8,14.4,12.9c0.3,0.1,1.4,0.0,1.7,0.1
 				c-0.9,0.4-2.2,0.6-3.1,1.1c-1.6,0.9-3.2,2.0-4.7,3.4c-6.4,5.6-4.7,18.0,4.7,20.8
 				c3.6,1.2,7.3,3.1,11.2,3.3c1.0,0.0,2.7-1.1,3.7-1.0c-0.7,0.6-1.9,1.5-2.6,2.2
 				c-0.6,0.6-2.0,0.8-2.6,1.5c-4.4,6.0,0.1,14.8,6.7,16.0c0.1-3.0,1.3-6.0,4.1-7.8
 				C123.2,284.3,130.8,282.3,136.8,280.1z"/>
            <path fill="url(#petals)" d="M151.2,171.6c0.4,1.7,1.0,3.4,1.6,5.1c1.8,5.1,4.2,9.8,7.0,13.7
 				c7.0,10.2,15.3,15.1,18.1,17.6c0.0,0.0,0.1,0.1,0.2,0.2c1.9,1.9,4.0,3.8,6.1,5.6
 				c2.0,1.7,5.0,3.2,8.1,4.5c4.7,2.0,9.8,3.5,12.4,5.0c-1.4-2.6-2.6-6.2-3.8-9.7
 				c-1.0-3.0-1.9-6.0-2.9-8.1c-8.7-17.5-6.7-45.9-6.0-31.6c0.7,14.1,6.8,23.6,15.0,37.8
 				c0.1,0.1,0.2,0.3,0.3,0.5c1.2,2.0,2.4,3.5,3.4,4.7c0.0,0.0,0.0-2.3,0.0-6.1
 				c0.0-16.9-0.2-62.7-0.0-62.5c0.9,0.9,4.3,42.1,6.3,61.8c0.4,4.3,0.7,7.6,1.0,9.2
 				c0.7-0.5,0.1-1.4,0.7-2.4c1.3-2.1,2.7-4.7,3.7-6.6c0.9-1.6,1.5-2.7,1.5-2.3
 				c0.0-0.8,3.3-7.3,3.3-8.1c5.8-17.7,9.2-40.6,8.6-33.3c-0.6,7.1-1.5,17.5-7.1,37.4
 				c-0.3,0.8-0.2,3.7-0.1,7.3c0.0,4.8-0.0,10.7-1.2,14.3c1.9-0.5,6.1-1.4,9.6-4.0
 				c1.7-1.2,3.7-2.9,5.7-4.6c0.1-0.1,0.3-0.2,0.5-0.4c2.3-2.1,4.8-4.4,7.2-6.9
 				c0.4-0.4,0.9-0.9,1.3-1.3c2.7-2.5,11.8-11.2,20.4-25.4c2.6-4.4,6.0-10.6,5.4-15.9
 				c-0.0-0.7-0.2-1.3-0.5-2.0c-0.5-1.5-1.5-2.9-3.1-4.1c-3.5-2.4-7.0-2.0-10.7-0.3
 				c-0.9,0.4-1.9,0.4-2.8,0.9c0.1-0.8,0.0-1.5,0.1-2.3c0.6-3.3,1.2-6.6,1.5-9.9
 				c0.0-5.5-1.0-10.8-5.2-14.0c-4.2-3.1-9.7-3.7-13.9-1.6c-2.7,1.5-4.3,3.8-6.2,6.1
 				c-0.1,0.1-0.9,0.8-1.0,1.0c-0.0-0.2-0.3-1.2-0.3-1.4c-1.6-5.6-5.6-10.7-10.7-16.0
 				c-6.5-7.0-18.6-9.0-25.1,0.3c-3.9,5.0-6.8,11.1-8.1,17.6c-0.0,0.3,0.4,1.3,0.3,1.7
 				c-0.7-0.7-1.2-1.9-2.0-2.6c-1.4-1.2-2.9-2.4-4.6-3.5c-7.2-4.4-18.6,0.7-18.4,10.6
 				c-0.0,3.8-0.7,7.9,0.1,11.7c0.2,1.0,1.8,2.2,2.1,3.2c-0.7-0.4-2.0-1.4-2.8-1.8
 				c-0.8-0.4-1.3-1.7-2.2-2.0c-7.6-2.6-15.3,5.7-12.9,12.8C151.1,171.4,151.1,171.5,151.2,171.6z"
            />
            <path fill="url(#petals)" d="M342.7,196.7c-5.9-2.2-12.6-3.3-19.2-2.6c-0.3,0.0-1.1,0.8-1.5,0.8
 				c0.4-0.8,1.4-1.7,1.9-2.7c0.7-1.7,1.5-3.5,2.0-5.5c2.1-8.2-6.1-17.6-15.5-14.6
 				c-3.7,1.0-7.8,1.5-11.2,3.5c-0.9,0.5-1.6,2.4-2.5,3.0c0.2-0.8,0.7-2.3,0.9-3.3
 				c0.1-0.9,1.2-1.8,1.2-2.7c0.3-8.2-10.2-13.1-16.3-8.4c-0.2,0.1-0.5,0.3-0.8,0.5
 				c1.0,2.2,1.2,4.6,0.3,7.1c-1.8,7.9-6.7,14.0-10.3,19.3c-7.0,10.9-14.8,17.4-17.3,19.7
 				c-1.8,1.7-3.8,3.5-5.8,5.1c-0.4,1.2-0.8,2.5-1.1,3.7c-1.2,5.4-1.0,11.1-1.4,12.5
 				c2.0-0.3,6.2,0.0,6.7-0.8c0.8-1.2,1.7-2.5,2.7-3.8c2.3-3.0,5.1-6.0,8.1-8.7
 				c14.2-13.4,42.0-19.8,28.5-14.9s-20.8,13.6-32.2,25.8c-0.6,0.6-1.1,1.3-1.6,1.9
 				c-0.7,1.0-1.4,1.9-1.9,2.7c-0.0,0.0,1.1-0.2,3.1-0.8c13.0-3.8,62.8-19.3,62.6-19.0
 				c-0.6,1.2-42.6,17.8-59.7,25.0c-2.8,1.1-4.9,2.1-6.1,2.6c0.7,0.5,1.4-0.3,2.5-0.0
 				c1.5,0.3,3.3,0.7,4.9,1.1c3.1,0.6,5.7,1.1,5.2,1.3c0.7-0.2,7.9,1.0,8.7,0.8
 				c10.4,0.2,22.8,2.0,30.6,3.3c2.2,0.2,4.2,0.5,5.9,0.9c3.3,0.7,0.2,0.0-5.9-0.9
 				c-7.3-0.8-18.2-1.0-34.0-0.7c-1.3-0.1-5.2,0.3-9.1,1.7c-2.4,0.8-4.7,2.0-6.4,3.7
 				c-1.0,1.0-2.6,1.7-3.9,1.5c0.9,1.6,2.3,3.9,5.0,5.9c1.5,1.1,3.3,2.3,5.2,3.5
 				c0.4,0.2,0.8,0.5,1.3,0.8c2.5,1.5,5.4,3.1,8.3,4.7c0.7,0.4,1.5,0.8,2.3,1.2
 				c3.2,1.8,14.2,8.0,30.2,12.1c5.6,1.4,13.9,3.1,18.7-0.5c0.5-0.4,1.0-0.8,1.4-1.4
 				c0.5-0.7,1.0-1.6,1.4-2.7c1.3-4.0-0.0-7.3-2.8-10.4c-0.6-0.7-0.9-1.7-1.7-2.4
 				c0.8-0.0,1.4-0.4,2.2-0.5c3.3-0.3,6.7-0.7,9.9-1.3c5.3-1.5,10.1-4.1,11.9-9.1
 				c1.7-5.0,0.7-10.3-2.4-13.8c-2.3-2.1-4.9-3.0-7.6-4.1c-0.1-0.0-1.1-0.6-1.3-0.7
 				c0.2-0.1,1.0-0.6,1.2-0.7c4.9-3.1,8.5-8.5,12.2-14.9C355.2,212.3,353.6,200.0,342.7,196.7z"/>
            <path fill="url(#petals)" d="M320.4,289.3c-8.1,0.5-15.3-2.3-21.5-4.3c-12.5-3.5-21.0-9.1-23.9-10.8
 				c-2.1-1.2-4.3-2.6-6.4-4.0c-1.6-0.0-3.2-0.0-4.7,0.0c-6.0,0.1-11.3,0.5-13.2,0.3
 				c0.4,3.3,0.7,8.5,1.9,9.0c1.8,0.8,3.8,1.5,5.9,2.1c3.2,0.9,6.5,1.9,9.7,3.5
 				c17.6,8.5,33.5,32.1,24.1,21.2c-9.3-10.9-20.2-14.5-35.6-20.8c-0.3-0.1-0.5-0.1-0.9-0.3
 				c-1.8-0.6-3.4-1.0-4.7-1.3c-0.0-0.0,0.9,1.3,2.7,3.7c9.4,12.2,39.6,50.6,39.3,50.6
 				c-1.4-0.1-30.7-32.1-43.9-46.0c-2.4-2.6-4.4-4.5-5.4-5.5c-0.2,0.8,0.8,1.2,0.9,2.3
 				c0.2,1.9,0.5,4.1,0.8,6.0c0.4,2.7,0.7,4.7,0.4,4.3c0.4,0.6,1.8,7.8,2.3,8.4
 				c6.2,17.6,6.2,44.2,5.0,35.0c-2.0-15.1-3.5-24.7-8.6-37.3c-0.2-0.9-3.0-3.5-6.0-6.6
 				c-2.9-3.1-6.1-6.7-7.4-9.7c-0.9,1.3-2.7,3.7-3.7,7.5c-0.5,1.8-1.0,3.8-1.4,6.0
 				c-0.3,1.7-0.6,3.6-0.9,5.5c-0.4,2.6-0.7,5.4-1.1,8.1c-0.1,1.1-0.4,3.1-0.7,5.8
 				c-0.6,5.9-1.1,15.4,0.2,26.7c0.3,3.0,0.9,6.7,2.0,10.1c0.3,0.9,0.7,1.9,1.2,2.8
 				c1.7,3.3,4.5,5.7,8.8,5.6c4.2-0.2,6.8-2.6,8.7-6.3c0.4-0.9,1.3-1.5,1.6-2.5
 				c0.3,0.7,0.9,1.2,1.2,1.9c1.5,3.0,3.0,6.0,4.8,8.8c3.3,4.4,7.5,7.9,12.8,7.8
 				c5.2-0.1,9.9-3.0,12.0-7.2c1.2-2.9,1.0-5.7,1.1-8.6c0.0-0.2,0.2-1.2,0.2-1.4
 				c0.1,0.1,1.0,0.7,1.1,0.8c4.7,3.5,11.0,4.9,18.3,6.0c9.5,1.5,20.3-4.3,19.5-15.7
 				c0.0-6.3-1.4-12.9-4.3-18.8c-0.1-0.3-1.1-0.8-1.3-1.1c1.0,0.1,2.1,0.7,3.2,0.8
 				c1.8,0.1,3.8,0.1,5.8-0.0c8.5-0.9,14.2-12.0,8.0-19.7c-2.3-3.0-4.2-6.7-7.3-9.2
 				c-0.8-0.6-2.8-0.6-3.7-1.2c0.9-0.0,2.4-0.1,3.4-0.3c0.9-0.1,2.1,0.4,3.0,0.1
 				c6.6-2.2,8.1-11.0,4.4-16.0C326.4,287.9,323.6,289.5,320.4,289.3z"/>
        </g>
    </defs>


    <use id="use_0" xlink:href="#flower"/>

    <use id="use_1" xlink:href="#flower" x="330" y="170" transform="scale(1.3)" >
        <param name="base" value="brown" />
        <param name="petal1" value="navy" />
        <param name="petal2" value="ghostwhite" />
        <param name="heart" value="pink" />
    </use>

    <use id="use_2" xlink:href="#flower" x="300" y="0">
        <param name="base" value="cornflowerblue" />
        <param name="petal1" value="white" />
        <param name="petal2" value="blue" />
        <param name="heart" value="darkslateblue" />
    </use>

    <use id="use_3" xlink:href="#flower" x="490" y="100">
        <param name="base" value="gold" />
        <param name="petal1" value="yellow" />
        <param name="petal2" value="red" />
        <param name="heart" value="darkorange" />
    </use>

    <use id="use_4" xlink:href="#flower" x="530" y="10" transform="scale(0.6)" >
        <param name="base" value="pink" />
        <param name="petal1" value="magenta" />
        <param name="petal2" value="purple" />
        <param name="heart" value="lightpink" />
    </use>


    <script type="text/ecmascript" xlink:href="param.js" />

</svg>
